<svg xmlns="http://www.w3.org/2000/svg" width="50" height="50" viewBox="0 0 50 50" fill="none">
  <g clip-path="url(#clip0_59_209)">
    <path d="M24.9998 4.16663C30.6603 4.16663 31.3665 4.18746 33.5873 4.29163C35.8061 4.39579 37.3165 4.74371 38.6457 5.26038C40.0207 5.78954 41.179 6.50621 42.3373 7.66246C43.3967 8.70391 44.2164 9.96369 44.7394 11.3541C45.254 12.6812 45.604 14.1937 45.7082 16.4125C45.8061 18.6333 45.8332 19.3395 45.8332 25C45.8332 30.6604 45.8123 31.3666 45.7082 33.5875C45.604 35.8062 45.254 37.3166 44.7394 38.6458C44.2179 40.037 43.398 41.2971 42.3373 42.3375C41.2956 43.3965 40.0359 44.2161 38.6457 44.7395C37.3186 45.2541 35.8061 45.6041 33.5873 45.7083C31.3665 45.8062 30.6603 45.8333 24.9998 45.8333C19.3394 45.8333 18.6332 45.8125 16.4123 45.7083C14.1936 45.6041 12.6832 45.2541 11.354 44.7395C9.96302 44.2176 8.70302 43.3978 7.66234 42.3375C6.60277 41.2962 5.78303 40.0364 5.26025 38.6458C4.74359 37.3187 4.39567 35.8062 4.2915 33.5875C4.19359 31.3666 4.1665 30.6604 4.1665 25C4.1665 19.3395 4.18734 18.6333 4.2915 16.4125C4.39567 14.1916 4.74359 12.6833 5.26025 11.3541C5.78158 9.96283 6.60151 8.70271 7.66234 7.66246C8.70332 6.60252 9.96323 5.78273 11.354 5.26038C12.6832 4.74371 14.1915 4.39579 16.4123 4.29163C18.6332 4.19371 19.3394 4.16663 24.9998 4.16663ZM24.9998 14.5833C22.2372 14.5833 19.5876 15.6808 17.6341 17.6343C15.6806 19.5878 14.5832 22.2373 14.5832 25C14.5832 27.7626 15.6806 30.4122 17.6341 32.3657C19.5876 34.3192 22.2372 35.4166 24.9998 35.4166C27.7625 35.4166 30.412 34.3192 32.3655 32.3657C34.319 30.4122 35.4165 27.7626 35.4165 25C35.4165 22.2373 34.319 19.5878 32.3655 17.6343C30.412 15.6808 27.7625 14.5833 24.9998 14.5833ZM38.5415 14.0625C38.5415 13.3718 38.2671 12.7094 37.7788 12.221C37.2904 11.7327 36.628 11.4583 35.9373 11.4583C35.2467 11.4583 34.5843 11.7327 34.0959 12.221C33.6075 12.7094 33.3332 13.3718 33.3332 14.0625C33.3332 14.7531 33.6075 15.4155 34.0959 15.9039C34.5843 16.3923 35.2467 16.6666 35.9373 16.6666C36.628 16.6666 37.2904 16.3923 37.7788 15.9039C38.2671 15.4155 38.5415 14.7531 38.5415 14.0625ZM24.9998 18.75C26.6574 18.75 28.2472 19.4084 29.4193 20.5805C30.5914 21.7526 31.2498 23.3424 31.2498 25C31.2498 26.6576 30.5914 28.2473 29.4193 29.4194C28.2472 30.5915 26.6574 31.25 24.9998 31.25C23.3422 31.25 21.7525 30.5915 20.5804 29.4194C19.4083 28.2473 18.7498 26.6576 18.7498 25C18.7498 23.3424 19.4083 21.7526 20.5804 20.5805C21.7525 19.4084 23.3422 18.75 24.9998 18.75Z" fill="#666666"/>
  </g>
  <defs>
    <clipPath id="clip0_59_209">
      <rect width="50" height="50" fill="white"/>
    </clipPath>
  </defs>
</svg>