<svg xmlns="http://www.w3.org/2000/svg" width="211" height="212" viewBox="0 0 211 212" fill="none">
  <path d="M197.698 134.547C157.333 204.446 69.9508 220.87 52.4901 207.416C35.0294 193.961 16.4379 174.042 4.02607 134.757C-8.38576 95.4713 13.5979 26.5968 47.4149 5.0751C81.2318 -16.4466 84.5978 41.1285 84.5978 41.1285C84.5978 41.1285 144.054 -5.12074 188.547 30.3808C233.04 65.8823 197.672 134.547 197.672 134.547H197.698Z" fill="url(#paint0_linear_38_45)"/>
  <path d="M43.7334 115.206C47.0882 115.206 49.8078 112.488 49.8078 109.136C49.8078 105.783 47.0882 103.066 43.7334 103.066C40.3785 103.066 37.6589 105.783 37.6589 109.136C37.6589 112.488 40.3785 115.206 43.7334 115.206Z" fill="#231815"/>
  <path d="M78.6284 115.206C81.9832 115.206 84.7028 112.488 84.7028 109.136C84.7028 105.783 81.9832 103.066 78.6284 103.066C75.2736 103.066 72.554 105.783 72.554 109.136C72.554 112.488 75.2736 115.206 78.6284 115.206Z" fill="#231815"/>
  <defs>
    <linearGradient id="paint0_linear_38_45" x1="25.7468" y1="24.7573" x2="170.092" y2="169.203" gradientUnits="userSpaceOnUse">
      <stop offset="0.28" stop-color="#EC7276"/>
      <stop offset="1" stop-color="#ECB778"/>
    </linearGradient>
  </defs>
</svg>