<svg xmlns="http://www.w3.org/2000/svg" width="209" height="208" viewBox="0 0 209 208" fill="none">
  <path d="M17.8979 142.263C62.7896 207.253 149.28 216.354 165.256 201.855C181.232 187.355 197.773 166.48 206.778 127.199C215.756 87.9167 188.898 22.4897 154.219 4.15992C119.541 -14.1699 120.802 42.2592 120.802 42.2592C120.802 42.2592 59.188 1.84619 18.5668 39.9969C-22.0544 78.1476 17.8979 142.289 17.8979 142.289V142.263Z" fill="url(#paint0_linear_38_64)"/>
  <path d="M166.002 111.285C169.284 111.285 171.945 108.626 171.945 105.347C171.945 102.067 169.284 99.4081 166.002 99.4081C162.72 99.4081 160.059 102.067 160.059 105.347C160.059 108.626 162.72 111.285 166.002 111.285Z" fill="#231815"/>
  <path d="M131.992 114.036C135.275 114.036 137.935 111.377 137.935 108.097C137.935 104.818 135.275 102.159 131.992 102.159C128.71 102.159 126.05 104.818 126.05 108.097C126.05 111.377 128.71 114.036 131.992 114.036Z" fill="#231815"/>
  <defs>
    <linearGradient id="paint0_linear_38_64" x1="176.891" y1="21.6273" x2="47.5507" y2="173.868" gradientUnits="userSpaceOnUse">
      <stop offset="0.28" stop-color="#82C586"/>
      <stop offset="1" stop-color="#ECB778"/>
    </linearGradient>
  </defs>
</svg>