<svg xmlns="http://www.w3.org/2000/svg" width="251" height="215" viewBox="0 0 251 215" fill="none">
  <path d="M111.36 39.3165C111.36 39.3165 61.8228 14.141 28.4944 48.7047C-4.83392 83.2684 20.5002 129.777 20.5002 129.777C20.5002 129.777 58.0758 187.998 138.863 193.981C138.863 193.981 209.66 165.53 227.487 95.6265C227.487 95.6265 243.691 37.6988 186.944 15.2209C186.944 15.2209 152.312 -3.8848 111.335 39.3001L111.36 39.3165Z" fill="url(#paint0_linear_41_80)"/>
  <path d="M128.801 107.456C132.156 107.456 134.875 104.739 134.875 101.386C134.875 98.0337 132.156 95.3159 128.801 95.3159C125.446 95.3159 122.727 98.0337 122.727 101.386C122.727 104.739 125.446 107.456 128.801 107.456Z" fill="#231815"/>
  <path d="M163.696 107.456C167.051 107.456 169.77 104.739 169.77 101.386C169.77 98.0337 167.051 95.3159 163.696 95.3159C160.341 95.3159 157.621 98.0337 157.621 101.386C157.621 104.739 160.341 107.456 163.696 107.456Z" fill="#231815"/>
  <defs>
    <linearGradient id="paint0_linear_41_80" x1="37.5631" y1="33.1684" x2="204.031" y2="143.933" gradientUnits="userSpaceOnUse">
      <stop offset="0.28" stop-color="#5FC4E4"/>
      <stop offset="1" stop-color="#FFDBAF"/>
    </linearGradient>
  </defs>
</svg>