<svg xmlns="http://www.w3.org/2000/svg" width="50" height="50" viewBox="0 0 50 50" fill="none">
  <path d="M46.1706 11.7833C44.5801 12.4868 42.8935 12.9489 41.1665 13.1541C42.9868 12.0655 44.3492 10.3521 44.9998 8.3333C43.2915 9.34997 41.4186 10.0625 39.4665 10.4479C38.1552 9.04493 36.4172 8.11448 34.5226 7.80119C32.628 7.4879 30.683 7.80933 28.9899 8.7155C27.2969 9.62167 25.9506 11.0618 25.1605 12.812C24.3703 14.5623 24.1805 16.5245 24.6206 18.3937C21.1563 18.2201 17.7672 17.3198 14.6733 15.7514C11.5795 14.1829 8.85007 11.9813 6.6623 9.28955C5.88791 10.6197 5.48096 12.1317 5.48314 13.6708C5.48314 16.6916 7.02064 19.3604 9.35814 20.9229C7.97482 20.8793 6.62196 20.5058 5.4123 19.8333V19.9416C5.41272 21.9535 6.10891 23.9033 7.38282 25.4605C8.65673 27.0177 10.43 28.0864 12.4019 28.4854C11.1178 28.8334 9.77128 28.8847 8.46439 28.6354C9.02036 30.3671 10.104 31.8816 11.5635 32.9669C13.0231 34.0521 14.7855 34.6537 16.604 34.6875C14.7966 36.1069 12.7273 37.1562 10.5141 37.7753C8.30102 38.3945 5.98757 38.5713 3.70605 38.2958C7.68876 40.8571 12.325 42.2169 17.0602 42.2125C33.0873 42.2125 41.8519 28.9354 41.8519 17.4208C41.8519 17.0458 41.8415 16.6666 41.8248 16.2958C43.5308 15.0628 45.0031 13.5354 46.1727 11.7854L46.1706 11.7833Z" fill="#666666"/>
</svg>